%TF.GenerationSoftware,KiCad,Pcbnew,4.0.7+dfsg1-1*%
%TF.CreationDate,2017-09-29T19:36:36+02:00*%
%TF.ProjectId,fx2grok-tiny,66783267726F6B2D74696E792E6B6963,1*%
%TF.FileFunction,Paste,Top*%
%FSLAX46Y46*%
G04 Gerber Fmt 4.6, Leading zero omitted, Abs format (unit mm)*
G04 Created by KiCad (PCBNEW 4.0.7+dfsg1-1) date Fri Sep 29 19:36:36 2017*
%MOMM*%
%LPD*%
G01*
G04 APERTURE LIST*
%ADD10C,0.150000*%
%ADD11R,0.398780X0.599440*%
%ADD12R,0.508000X0.762000*%
%ADD13R,0.599440X0.398780*%
%ADD14R,1.800300X0.759460*%
%ADD15R,1.348740X0.398780*%
%ADD16O,1.600200X2.100580*%
%ADD17R,1.699920X1.899920*%
%ADD18R,1.899920X1.899920*%
G04 APERTURE END LIST*
D10*
D11*
X75131580Y-46209200D03*
X76030740Y-46209200D03*
X75510740Y-40199200D03*
X74611580Y-40199200D03*
X76390740Y-39089200D03*
X75491580Y-39089200D03*
D12*
X74943660Y-42669200D03*
X73038660Y-42669200D03*
X74943660Y-45209200D03*
X73991160Y-42669200D03*
X73038660Y-45209200D03*
D11*
X73670740Y-38919200D03*
X72771580Y-38919200D03*
X73600740Y-48029200D03*
X72701580Y-48029200D03*
X75321580Y-47299200D03*
X76220740Y-47299200D03*
X75671580Y-48169200D03*
X76570740Y-48169200D03*
D13*
X74531160Y-47868780D03*
X74531160Y-46969620D03*
X77461160Y-48238780D03*
X77461160Y-47339620D03*
X77591160Y-39120040D03*
X77591160Y-40019200D03*
D14*
X77581160Y-46484440D03*
X77581160Y-45209360D03*
X77581160Y-43934280D03*
X77581160Y-42659200D03*
X77581160Y-41384120D03*
D15*
X71500380Y-41969840D03*
X71500380Y-42620080D03*
X71500380Y-43270320D03*
X71500380Y-43920560D03*
X71500380Y-44570800D03*
D16*
X71401320Y-40171520D03*
X71401320Y-46371660D03*
D17*
X68851160Y-47169220D03*
D18*
X68851160Y-44469200D03*
X68851160Y-42071440D03*
D17*
X68851160Y-39371420D03*
D13*
X72801160Y-47158780D03*
X72801160Y-46259620D03*
D11*
X74460740Y-46179200D03*
X73561580Y-46179200D03*
M02*
