%TF.GenerationSoftware,KiCad,Pcbnew,4.0.7+dfsg1-1*%
%TF.CreationDate,2017-09-29T19:36:36+02:00*%
%TF.ProjectId,fx2grok-tiny,66783267726F6B2D74696E792E6B6963,1*%
%TF.FileFunction,Copper,L1,Top,Signal*%
%FSLAX46Y46*%
G04 Gerber Fmt 4.6, Leading zero omitted, Abs format (unit mm)*
G04 Created by KiCad (PCBNEW 4.0.7+dfsg1-1) date Fri Sep 29 19:36:36 2017*
%MOMM*%
%LPD*%
G01*
G04 APERTURE LIST*
%ADD10C,0.150000*%
%ADD11C,0.127000*%
%ADD12R,0.398780X0.599440*%
%ADD13R,0.508000X0.762000*%
%ADD14R,0.599440X0.398780*%
%ADD15R,1.800300X0.759460*%
%ADD16R,1.348740X0.398780*%
%ADD17O,1.600200X2.100580*%
%ADD18R,1.699920X1.899920*%
%ADD19R,1.899920X1.899920*%
%ADD20C,0.449580*%
G04 APERTURE END LIST*
D10*
D11*
X77641970Y-40579486D02*
X77641970Y-40638914D01*
X77680160Y-40698343D01*
X77718350Y-40728057D01*
X77794731Y-40757771D01*
X77947493Y-40787486D01*
X78138446Y-40787486D01*
X78291208Y-40757771D01*
X78367589Y-40728057D01*
X78405779Y-40698343D01*
X78443970Y-40638914D01*
X78443970Y-40579486D01*
X78405779Y-40520057D01*
X78367589Y-40490343D01*
X78291208Y-40460628D01*
X78138446Y-40430914D01*
X77947493Y-40430914D01*
X77794731Y-40460628D01*
X77718350Y-40490343D01*
X77680160Y-40520057D01*
X77641970Y-40579486D01*
D12*
X75131580Y-46209200D03*
X76030740Y-46209200D03*
X75510740Y-40199200D03*
X74611580Y-40199200D03*
X76390740Y-39089200D03*
X75491580Y-39089200D03*
D13*
X74943660Y-42669200D03*
X73038660Y-42669200D03*
X74943660Y-45209200D03*
X73991160Y-42669200D03*
X73038660Y-45209200D03*
D12*
X73670740Y-38919200D03*
X72771580Y-38919200D03*
X73600740Y-48029200D03*
X72701580Y-48029200D03*
X75321580Y-47299200D03*
X76220740Y-47299200D03*
X75671580Y-48169200D03*
X76570740Y-48169200D03*
D14*
X74531160Y-47868780D03*
X74531160Y-46969620D03*
X77461160Y-48238780D03*
X77461160Y-47339620D03*
X77591160Y-39120040D03*
X77591160Y-40019200D03*
D15*
X77581160Y-46484440D03*
X77581160Y-45209360D03*
X77581160Y-43934280D03*
X77581160Y-42659200D03*
X77581160Y-41384120D03*
D16*
X71500380Y-41969840D03*
X71500380Y-42620080D03*
X71500380Y-43270320D03*
X71500380Y-43920560D03*
X71500380Y-44570800D03*
D17*
X71401320Y-40171520D03*
X71401320Y-46371660D03*
D18*
X68851160Y-47169220D03*
D19*
X68851160Y-44469200D03*
X68851160Y-42071440D03*
D18*
X68851160Y-39371420D03*
D14*
X72801160Y-47158780D03*
X72801160Y-46259620D03*
D12*
X74460740Y-46179200D03*
X73561580Y-46179200D03*
D20*
X73401567Y-41133456D03*
X73883623Y-41449806D03*
X75561160Y-42449200D03*
X75452665Y-43407472D03*
X75541160Y-44439200D03*
X75571160Y-45439200D03*
X70229990Y-47240379D03*
X75501160Y-41449200D03*
X76571160Y-40109200D03*
X74001160Y-46953992D03*
X74341160Y-46418438D03*
X77621160Y-46099200D03*
X71401320Y-46371660D03*
X75527580Y-39270431D03*
X76301160Y-48219200D03*
X71344558Y-40732598D03*
X69631160Y-39339200D03*
X69338686Y-47462012D03*
X76379544Y-47494500D03*
X73991160Y-43109200D03*
X74498152Y-39717541D03*
X73328003Y-39943971D03*
X72931160Y-38449200D03*
X71003160Y-39351200D03*
X68671160Y-42399200D03*
X68161160Y-39859200D03*
X77731160Y-39409200D03*
X73471160Y-47269200D03*
X75201160Y-43949200D03*
X75493456Y-46963447D03*
X75491160Y-38269200D03*
X73895363Y-39832586D03*
X73911160Y-38499200D03*
X77861160Y-48189200D03*
X72851160Y-47377688D03*
D11*
X72986276Y-41946816D02*
X73038660Y-41999200D01*
X74951160Y-40780363D02*
X74888962Y-40718165D01*
X72986276Y-40934115D02*
X72986276Y-41946816D01*
X73202226Y-40718165D02*
X72986276Y-40934115D01*
X74888962Y-40718165D02*
X73202226Y-40718165D01*
X73038660Y-41999200D02*
X73038660Y-42161200D01*
X72847300Y-41969840D02*
X73009300Y-41969840D01*
X73009300Y-41969840D02*
X73038660Y-41999200D01*
X74943660Y-42669200D02*
X74943660Y-42161200D01*
X74943660Y-42161200D02*
X74951160Y-42153700D01*
X74951160Y-40780363D02*
X75394997Y-40780363D01*
X74951160Y-42153700D02*
X74951160Y-40780363D01*
X75394997Y-40780363D02*
X75510740Y-40664620D01*
X75510740Y-40664620D02*
X75510740Y-40199200D01*
X72847300Y-41969840D02*
X71500380Y-41969840D01*
X73038660Y-42669200D02*
X73038660Y-42161200D01*
X73038660Y-42542200D02*
X73038660Y-42669200D01*
X73506405Y-43179357D02*
X73506405Y-41687221D01*
X73445061Y-43240701D02*
X73506405Y-43179357D01*
X73401567Y-41451357D02*
X73401567Y-41133456D01*
X73506405Y-41687221D02*
X73401567Y-41582383D01*
X72011638Y-42620080D02*
X72632259Y-43240701D01*
X71500380Y-42620080D02*
X72011638Y-42620080D01*
X72632259Y-43240701D02*
X73445061Y-43240701D01*
X73401567Y-41582383D02*
X73401567Y-41451357D01*
X72302653Y-43270320D02*
X72556825Y-43524492D01*
X74435661Y-43279332D02*
X74435661Y-42001844D01*
X74190501Y-43524492D02*
X74435661Y-43279332D01*
X72556825Y-43524492D02*
X74190501Y-43524492D01*
X71500380Y-43270320D02*
X72302653Y-43270320D01*
X74435661Y-42001844D02*
X74108412Y-41674595D01*
X74108412Y-41674595D02*
X73883623Y-41449806D01*
X75561160Y-42449200D02*
X75785949Y-42224411D01*
X75785949Y-42224411D02*
X76220449Y-42224411D01*
X77060740Y-41384120D02*
X77581160Y-41384120D01*
X76220449Y-42224411D02*
X77060740Y-41384120D01*
X75452665Y-43407472D02*
X76200937Y-42659200D01*
X76200937Y-42659200D02*
X77581160Y-42659200D01*
X77206369Y-42683960D02*
X77621160Y-42683960D01*
X75541160Y-44439200D02*
X76046080Y-43934280D01*
X76046080Y-43934280D02*
X77581160Y-43934280D01*
X76932049Y-43959040D02*
X77621160Y-43959040D01*
X77000740Y-43959040D02*
X77621160Y-43959040D01*
X75571160Y-45439200D02*
X77351320Y-45439200D01*
X77351320Y-45439200D02*
X77581160Y-45209360D01*
X77021311Y-45234120D02*
X77621160Y-45234120D01*
X77606240Y-45219200D02*
X77621160Y-45234120D01*
X70880424Y-47919200D02*
X72616730Y-47919200D01*
X72616730Y-47919200D02*
X72616730Y-47979200D01*
X70266795Y-47305571D02*
X70880424Y-47919200D01*
X75725949Y-40954411D02*
X76571160Y-40109200D01*
X75725949Y-41224411D02*
X75725949Y-40954411D01*
X75501160Y-41449200D02*
X75725949Y-41224411D01*
X74001160Y-46953992D02*
X74526788Y-46953992D01*
X74526788Y-46953992D02*
X74591160Y-46889620D01*
X74460740Y-46179200D02*
X74460740Y-46298858D01*
X74460740Y-46298858D02*
X74341160Y-46418438D01*
X76030740Y-46209200D02*
X77305920Y-46209200D01*
X77305920Y-46209200D02*
X77581160Y-46484440D01*
X77621160Y-46509200D02*
X77621160Y-46099200D01*
X71573780Y-46199200D02*
X71401320Y-46371660D01*
X75752369Y-39495220D02*
X75527580Y-39270431D01*
X77164440Y-39692810D02*
X75949959Y-39692810D01*
X77490830Y-40019200D02*
X77164440Y-39692810D01*
X77591160Y-40019200D02*
X77490830Y-40019200D01*
X75949959Y-39692810D02*
X75752369Y-39495220D01*
X72771580Y-39938780D02*
X72538840Y-40171520D01*
X72538840Y-40171520D02*
X71401320Y-40171520D01*
X72771580Y-39938780D02*
X72776771Y-39943971D01*
X72776771Y-39943971D02*
X73328003Y-39943971D01*
X72771580Y-38919200D02*
X72771580Y-39938780D01*
X76301160Y-48219200D02*
X76430740Y-48219200D01*
X76430740Y-48219200D02*
X76560740Y-48089200D01*
X76379544Y-47176599D02*
X76379544Y-47494500D01*
X77000740Y-46509200D02*
X76379544Y-47130396D01*
X76379544Y-47130396D02*
X76379544Y-47176599D01*
X77621160Y-46509200D02*
X77000740Y-46509200D01*
X74261160Y-38039200D02*
X74498152Y-38276192D01*
X74498152Y-38276192D02*
X74498152Y-39717541D01*
X73701160Y-38039200D02*
X74261160Y-38039200D01*
X73515949Y-38224411D02*
X73701160Y-38039200D01*
X72931160Y-38449200D02*
X73155949Y-38224411D01*
X73155949Y-38224411D02*
X73515949Y-38224411D01*
X73991160Y-42669200D02*
X73991160Y-43109200D01*
X74611580Y-40199200D02*
X74611580Y-39830969D01*
X74611580Y-39830969D02*
X74498152Y-39717541D01*
X72771580Y-38919200D02*
X72771580Y-39387548D01*
X72814860Y-38449200D02*
X72931160Y-38449200D01*
X72771580Y-38919200D02*
X72771580Y-38492480D01*
X72771580Y-38492480D02*
X72814860Y-38449200D01*
X71401320Y-40171520D02*
X71401320Y-39749360D01*
X71401320Y-39749360D02*
X71003160Y-39351200D01*
X71401320Y-46371660D02*
X71401320Y-44669860D01*
X71401320Y-44669860D02*
X71500380Y-44570800D01*
X71401320Y-46371660D02*
X69648720Y-46371660D01*
X69648720Y-46371660D02*
X68851160Y-47169220D01*
X76560740Y-48089200D02*
X76212762Y-48089200D01*
X71401320Y-40171520D02*
X69651260Y-40171520D01*
X69651260Y-40171520D02*
X68851160Y-39371420D01*
X68851160Y-47169220D02*
X68851160Y-44469200D01*
X68851160Y-44469200D02*
X68851160Y-42071440D01*
X68851160Y-42071440D02*
X68851160Y-39371420D01*
X77621160Y-46509200D02*
X77621160Y-47179620D01*
X77621160Y-47179620D02*
X77461160Y-47339620D01*
X73640740Y-47979200D02*
X73640740Y-47438780D01*
X73640740Y-47438780D02*
X73471160Y-47269200D01*
X73640740Y-47979200D02*
X74420740Y-47979200D01*
X74420740Y-47979200D02*
X74531160Y-47868780D01*
X75131580Y-46209200D02*
X75131580Y-46601571D01*
X75131580Y-46601571D02*
X75493456Y-46963447D01*
X75131580Y-46209200D02*
X75131580Y-45397120D01*
X75131580Y-45397120D02*
X74943660Y-45209200D01*
X74943660Y-45209200D02*
X74943660Y-44206700D01*
X74943660Y-44206700D02*
X75201160Y-43949200D01*
X77731160Y-39409200D02*
X77731160Y-39260040D01*
X77731160Y-39260040D02*
X77591160Y-39120040D01*
X74531160Y-47868780D02*
X74752000Y-47868780D01*
X74752000Y-47868780D02*
X75321580Y-47299200D01*
X74591160Y-47788780D02*
X74414444Y-47788780D01*
X74940740Y-45212120D02*
X74943660Y-45209200D01*
X75321580Y-47299200D02*
X75268667Y-47246287D01*
X75268667Y-47188236D02*
X75493456Y-46963447D01*
X75268667Y-47246287D02*
X75268667Y-47188236D01*
X75301160Y-47278780D02*
X75321580Y-47299200D01*
X75661580Y-48089200D02*
X75661580Y-47639200D01*
X75661580Y-47639200D02*
X75321580Y-47299200D01*
X75561580Y-47989200D02*
X75661580Y-48089200D01*
X76390740Y-39089200D02*
X76390740Y-38988870D01*
X76390740Y-38988870D02*
X75671070Y-38269200D01*
X75671070Y-38269200D02*
X75491160Y-38269200D01*
X77591160Y-39120040D02*
X76421580Y-39120040D01*
X76421580Y-39120040D02*
X76390740Y-39089200D01*
X77592000Y-39119200D02*
X77591160Y-39120040D01*
X73670740Y-38919200D02*
X73670740Y-39607963D01*
X73670740Y-39607963D02*
X73895363Y-39832586D01*
X73670740Y-38919200D02*
X73670740Y-38739620D01*
X73670740Y-38739620D02*
X73911160Y-38499200D01*
X73691160Y-38939620D02*
X73670740Y-38919200D01*
X77861160Y-48189200D02*
X77510740Y-48189200D01*
X77510740Y-48189200D02*
X77461160Y-48238780D01*
X72851160Y-47377688D02*
X72851160Y-47208780D01*
X72851160Y-47208780D02*
X72801160Y-47158780D01*
X72801160Y-46259620D02*
X73481160Y-46259620D01*
X73481160Y-46259620D02*
X73561580Y-46179200D01*
M02*
