%TF.GenerationSoftware,KiCad,Pcbnew,4.0.7+dfsg1-1*%
%TF.CreationDate,2017-09-29T19:36:36+02:00*%
%TF.ProjectId,fx2grok-tiny,66783267726F6B2D74696E792E6B6963,1*%
%TF.FileFunction,Copper,L2,Bot,Signal*%
%FSLAX46Y46*%
G04 Gerber Fmt 4.6, Leading zero omitted, Abs format (unit mm)*
G04 Created by KiCad (PCBNEW 4.0.7+dfsg1-1) date Fri Sep 29 19:36:36 2017*
%MOMM*%
%LPD*%
G01*
G04 APERTURE LIST*
%ADD10C,0.150000*%
%ADD11C,0.206000*%
%ADD12C,0.127000*%
%ADD13R,0.599440X0.398780*%
%ADD14R,0.398780X0.599440*%
%ADD15R,0.749300X0.650240*%
%ADD16R,5.499100X4.800600*%
%ADD17R,0.690880X0.279400*%
%ADD18R,0.279400X0.690880*%
%ADD19R,1.800300X0.759460*%
%ADD20C,0.449580*%
G04 APERTURE END LIST*
D10*
D11*
X68991160Y-40989200D02*
X68951921Y-41047867D01*
X68991160Y-41106533D01*
X69030398Y-41047867D01*
X68991160Y-40989200D01*
X68991160Y-41106533D01*
D12*
X78398422Y-40714343D02*
X78398422Y-40424057D01*
X78398422Y-40569200D02*
X77763422Y-40569200D01*
X77854136Y-40520819D01*
X77914612Y-40472438D01*
X77944850Y-40424057D01*
D13*
X75071160Y-38269620D03*
X75071160Y-39168780D03*
D14*
X76890740Y-48209200D03*
X75991580Y-48209200D03*
D13*
X68731160Y-39308780D03*
X68731160Y-38409620D03*
D14*
X77371580Y-47449200D03*
X78270740Y-47449200D03*
D13*
X73181160Y-39138780D03*
X73181160Y-38239620D03*
X69661160Y-38189620D03*
X69661160Y-39088780D03*
X74151160Y-38239620D03*
X74151160Y-39138780D03*
D14*
X76581580Y-39699200D03*
X77480740Y-39699200D03*
X76591580Y-38579200D03*
X77490740Y-38579200D03*
D15*
X72101400Y-39269580D03*
X70803460Y-39269580D03*
X70803460Y-38268820D03*
X72101400Y-38268820D03*
D16*
X72097320Y-44201900D03*
D17*
X75942880Y-40948160D03*
X75942880Y-41448540D03*
X75942880Y-41948920D03*
X75942880Y-42449300D03*
X75942880Y-42947140D03*
X75942880Y-43447520D03*
X75942880Y-43947900D03*
X75942880Y-44448280D03*
X75942880Y-44948660D03*
X75942880Y-45449040D03*
X75942880Y-45949420D03*
X75942880Y-46449800D03*
X75942880Y-46947640D03*
X75942880Y-47448020D03*
D18*
X75343440Y-40348720D03*
X74843060Y-40348720D03*
X74342680Y-40348720D03*
X73842300Y-40348720D03*
X73341920Y-40348720D03*
X72841540Y-40348720D03*
X72341160Y-40348720D03*
X71843320Y-40348720D03*
X71342940Y-40348720D03*
X70842560Y-40348720D03*
X70342180Y-40348720D03*
X69841800Y-40348720D03*
X69341420Y-40348720D03*
X68843580Y-40348720D03*
D17*
X68241600Y-40948160D03*
X68241600Y-41400280D03*
X68241600Y-41898120D03*
X68241600Y-42398500D03*
X68241600Y-42898880D03*
X68241600Y-43399260D03*
X68241600Y-43899640D03*
X68241600Y-44400020D03*
X68241600Y-44900400D03*
X68241600Y-45398240D03*
X68241600Y-45898620D03*
X68241600Y-46399000D03*
X68241600Y-46899380D03*
X68241600Y-47399760D03*
D18*
X68841040Y-47999200D03*
X69341420Y-47999200D03*
X69841800Y-47999200D03*
X70342180Y-47999200D03*
X70842560Y-47999200D03*
X71342940Y-47999200D03*
X71843320Y-47999200D03*
X72341160Y-47999200D03*
X72841540Y-47999200D03*
X73341920Y-47999200D03*
X73842300Y-47999200D03*
X74342680Y-47999200D03*
X74843060Y-47999200D03*
X75343440Y-47999200D03*
D19*
X77581160Y-41384120D03*
X77581160Y-42659200D03*
X77581160Y-43934280D03*
X77581160Y-45209360D03*
X77581160Y-46484440D03*
D20*
X73401567Y-41133456D03*
X73883623Y-41449806D03*
X75561160Y-42449200D03*
X75452665Y-43407472D03*
X75541160Y-44439200D03*
X75571160Y-45439200D03*
X70229990Y-47240379D03*
X75501160Y-41449200D03*
X76571160Y-40109200D03*
X74001160Y-46953992D03*
X74341160Y-46418438D03*
X77621160Y-46099200D03*
X71401320Y-46371660D03*
X75527580Y-39270431D03*
X76301160Y-48219200D03*
X71344558Y-40732598D03*
X69631160Y-39339200D03*
X69338686Y-47462012D03*
X76379544Y-47494500D03*
X73991160Y-43109200D03*
X74498152Y-39717541D03*
X73328003Y-39943971D03*
X72931160Y-38449200D03*
X71003160Y-39351200D03*
X68671160Y-42399200D03*
X68161160Y-39859200D03*
X77731160Y-39409200D03*
X73471160Y-47269200D03*
X75201160Y-43949200D03*
X75493456Y-46963447D03*
X75491160Y-38269200D03*
X73895363Y-39832586D03*
X73911160Y-38499200D03*
X77861160Y-48189200D03*
X72851160Y-47377688D03*
D12*
X72841540Y-40348720D02*
X72841540Y-40821160D01*
X72841540Y-40821160D02*
X73153836Y-41133456D01*
X73153836Y-41133456D02*
X73401567Y-41133456D01*
X73722330Y-41611099D02*
X73883623Y-41449806D01*
X73131099Y-41611099D02*
X73722330Y-41611099D01*
X72341160Y-40821160D02*
X73131099Y-41611099D01*
X72341160Y-40348720D02*
X72341160Y-40821160D01*
X75942880Y-42449300D02*
X75561260Y-42449300D01*
X75561260Y-42449300D02*
X75561160Y-42449200D01*
X75942880Y-42449300D02*
X75935323Y-42441743D01*
X75935323Y-42441743D02*
X75931863Y-42441743D01*
X75942880Y-42947140D02*
X76273082Y-42947140D01*
X76273082Y-42947140D02*
X76490509Y-42729713D01*
X76490509Y-42729713D02*
X76490509Y-41954351D01*
X76490509Y-41954351D02*
X77060740Y-41384120D01*
X77060740Y-41384120D02*
X77581160Y-41384120D01*
X76262870Y-42947140D02*
X76269218Y-42940792D01*
X77212611Y-41394120D02*
X77621160Y-41394120D01*
X75942880Y-42947140D02*
X76262870Y-42947140D01*
X75936540Y-42940800D02*
X75931863Y-42940800D01*
X75942880Y-42947140D02*
X75936540Y-42940800D01*
X75942880Y-43447520D02*
X75492713Y-43447520D01*
X75492713Y-43447520D02*
X75452665Y-43407472D01*
X75942880Y-43947900D02*
X76415320Y-43947900D01*
X76415320Y-43947900D02*
X76490509Y-43872711D01*
X76490509Y-43229431D02*
X77060740Y-42659200D01*
X76490509Y-43872711D02*
X76490509Y-43229431D01*
X77060740Y-42659200D02*
X77581160Y-42659200D01*
X77621160Y-42669200D02*
X77193640Y-42669200D01*
X75942880Y-43947900D02*
X76260330Y-43947900D01*
X75942880Y-44448280D02*
X75550240Y-44448280D01*
X75550240Y-44448280D02*
X75541160Y-44439200D01*
X75942880Y-44948660D02*
X76270542Y-44948660D01*
X76270542Y-44948660D02*
X77284922Y-43934280D01*
X77284922Y-43934280D02*
X77581160Y-43934280D01*
X77313000Y-44252440D02*
X77621160Y-43944280D01*
X77339860Y-44225580D02*
X77621160Y-43944280D01*
X75942880Y-44948660D02*
X76260330Y-44948660D01*
X75942880Y-45449040D02*
X75581000Y-45449040D01*
X75581000Y-45449040D02*
X75571160Y-45439200D01*
X75942880Y-45949420D02*
X76415320Y-45949420D01*
X76415320Y-45949420D02*
X77155380Y-45209360D01*
X77155380Y-45209360D02*
X77581160Y-45209360D01*
X77391480Y-45449040D02*
X77621160Y-45219360D01*
X77614180Y-45226340D02*
X77621160Y-45219360D01*
X75924320Y-45930860D02*
X75803124Y-45930860D01*
X75942880Y-45949420D02*
X75924320Y-45930860D01*
X69912089Y-47240379D02*
X70229990Y-47240379D01*
X69090155Y-47046712D02*
X69718422Y-47046712D01*
X68841040Y-47295827D02*
X69090155Y-47046712D01*
X69718422Y-47046712D02*
X69912089Y-47240379D01*
X68841040Y-47999200D02*
X68841040Y-47295827D01*
X68841040Y-47999200D02*
X68935004Y-47999200D01*
X68849524Y-48007684D02*
X68841040Y-47999200D01*
X76265190Y-38579200D02*
X76591580Y-38579200D01*
X75942880Y-40948160D02*
X75942880Y-38901510D01*
X75942880Y-38901510D02*
X76265190Y-38579200D01*
X76581580Y-39699200D02*
X76581580Y-40098780D01*
X76581580Y-40098780D02*
X76571160Y-40109200D01*
X76651160Y-40029200D02*
X76571160Y-40109200D01*
X75501820Y-41448540D02*
X75501160Y-41449200D01*
X75942880Y-41448540D02*
X75501820Y-41448540D01*
X73224661Y-46792701D02*
X73839869Y-46792701D01*
X73839869Y-46792701D02*
X74001160Y-46953992D01*
X68241600Y-46899380D02*
X68714040Y-46899380D01*
X68820719Y-46792701D02*
X73224661Y-46792701D01*
X68714040Y-46899380D02*
X68820719Y-46792701D01*
X72101400Y-39269580D02*
X73050360Y-39269580D01*
X73050360Y-39269580D02*
X73181160Y-39138780D01*
X70842560Y-40348720D02*
X70842560Y-39876280D01*
X70842560Y-39876280D02*
X70933639Y-39785201D01*
X70933639Y-39785201D02*
X71536249Y-39785201D01*
X71536249Y-39785201D02*
X72051870Y-39269580D01*
X72051870Y-39269580D02*
X72101400Y-39269580D01*
X69631160Y-38159620D02*
X70694260Y-38159620D01*
X70694260Y-38159620D02*
X70803460Y-38268820D01*
X70342180Y-40348720D02*
X70342180Y-39876280D01*
X70342180Y-39876280D02*
X70238309Y-39772409D01*
X70238309Y-39772409D02*
X70238309Y-38784441D01*
X70238309Y-38784441D02*
X70753930Y-38268820D01*
X77621160Y-46099200D02*
X77621160Y-46494440D01*
X75497880Y-39168780D02*
X75527580Y-39198480D01*
X75071160Y-39168780D02*
X75497880Y-39168780D01*
X75527580Y-39198480D02*
X75527580Y-39270431D01*
X77621160Y-46494440D02*
X77621160Y-46799620D01*
X77621160Y-46799620D02*
X78270740Y-47449200D01*
X75991580Y-48209200D02*
X76291160Y-48209200D01*
X76291160Y-48209200D02*
X76301160Y-48219200D01*
X75991580Y-48209200D02*
X75991580Y-47496720D01*
X75991580Y-47496720D02*
X75942880Y-47448020D01*
X74151160Y-39138780D02*
X74151160Y-39370549D01*
X74151160Y-39370549D02*
X74498152Y-39717541D01*
X71344558Y-40414697D02*
X71344558Y-40732598D01*
X71342940Y-40348720D02*
X71344558Y-40350338D01*
X71344558Y-40350338D02*
X71344558Y-40414697D01*
X74342680Y-40348720D02*
X74342680Y-39873013D01*
X74342680Y-39873013D02*
X74498152Y-39717541D01*
X69631160Y-39058780D02*
X69530830Y-39058780D01*
X69530830Y-39058780D02*
X69530410Y-39059200D01*
X69530410Y-39059200D02*
X69480410Y-39009200D01*
X69480410Y-39009200D02*
X69421070Y-39009200D01*
X69421070Y-39009200D02*
X68941490Y-38529620D01*
X68941490Y-38529620D02*
X68841160Y-38529620D01*
X69631160Y-39058780D02*
X69631160Y-39339200D01*
X69341420Y-47999200D02*
X69341420Y-47464746D01*
X69341420Y-47464746D02*
X69338686Y-47462012D01*
X75989360Y-47494500D02*
X76061643Y-47494500D01*
X76061643Y-47494500D02*
X76379544Y-47494500D01*
X75942880Y-47448020D02*
X75989360Y-47494500D01*
X73341920Y-40348720D02*
X73341920Y-39957888D01*
X73341920Y-39957888D02*
X73328003Y-39943971D01*
X75942880Y-46449800D02*
X74345220Y-46449800D01*
X74345220Y-46449800D02*
X72097320Y-44201900D01*
X76601160Y-46449800D02*
X77576520Y-46449800D01*
X75942880Y-46449800D02*
X76601160Y-46449800D01*
X68671160Y-42399200D02*
X68242300Y-42399200D01*
X68242300Y-42399200D02*
X68241600Y-42398500D01*
X69343499Y-47999200D02*
X69350296Y-47992403D01*
X69341420Y-47999200D02*
X69343499Y-47999200D01*
X68241600Y-40948160D02*
X68241600Y-39939640D01*
X68241600Y-39939640D02*
X68161160Y-39859200D01*
X75343440Y-40348720D02*
X75343440Y-39441060D01*
X75343440Y-39441060D02*
X75071160Y-39168780D01*
X75071160Y-39168780D02*
X74181160Y-39168780D01*
X74181160Y-39168780D02*
X74151160Y-39138780D01*
X72931160Y-38449200D02*
X72971580Y-38449200D01*
X72971580Y-38449200D02*
X73181160Y-38239620D01*
X71003160Y-39351200D02*
X70885080Y-39351200D01*
X70885080Y-39351200D02*
X70803460Y-39269580D01*
X76001580Y-47506720D02*
X75942880Y-47448020D01*
X69631160Y-39058780D02*
X69631160Y-38989200D01*
X70803460Y-39269580D02*
X70852990Y-39269580D01*
X70852990Y-39269580D02*
X71853750Y-38268820D01*
X71853750Y-38268820D02*
X72101400Y-38268820D01*
X75037371Y-43785411D02*
X75201160Y-43949200D01*
X75037371Y-42130491D02*
X75037371Y-43785411D01*
X75198662Y-41969200D02*
X75037371Y-42130491D01*
X77490740Y-38579200D02*
X77490740Y-39689200D01*
X77490740Y-39689200D02*
X77480740Y-39699200D01*
X77480740Y-39699200D02*
X77480740Y-39659620D01*
X77480740Y-39659620D02*
X77731160Y-39409200D01*
X75198662Y-41810490D02*
X75198662Y-41969200D01*
X75942880Y-41948920D02*
X75218942Y-41948920D01*
X75218942Y-41948920D02*
X75198662Y-41969200D01*
X73842300Y-40821160D02*
X74632239Y-41611099D01*
X74999271Y-41611099D02*
X75198662Y-41810490D01*
X73842300Y-40348720D02*
X73842300Y-40821160D01*
X74632239Y-41611099D02*
X74999271Y-41611099D01*
X73842300Y-47640340D02*
X73471160Y-47269200D01*
X73842300Y-47999200D02*
X73842300Y-47640340D01*
X69841160Y-41400280D02*
X71680080Y-41400280D01*
X71843320Y-40821160D02*
X71843320Y-40348720D01*
X71680080Y-41400280D02*
X71843320Y-41237040D01*
X71843320Y-41237040D02*
X71843320Y-40821160D01*
X68241600Y-41400280D02*
X69841160Y-41400280D01*
X69841800Y-40348720D02*
X69841800Y-41399640D01*
X69841800Y-41399640D02*
X69841160Y-41400280D01*
X69841800Y-40348720D02*
X69841800Y-39876280D01*
X69267880Y-39755170D02*
X68941490Y-39428780D01*
X69841800Y-39876280D02*
X69720690Y-39755170D01*
X69720690Y-39755170D02*
X69267880Y-39755170D01*
X68941490Y-39428780D02*
X68841160Y-39428780D01*
X76948876Y-47449200D02*
X76578885Y-47079209D01*
X76074449Y-47079209D02*
X75942880Y-46947640D01*
X76994020Y-47449200D02*
X76948876Y-47449200D01*
X76578885Y-47079209D02*
X76074449Y-47079209D01*
X77371580Y-47449200D02*
X76994020Y-47449200D01*
X76994020Y-47449200D02*
X76840740Y-47602480D01*
X76840740Y-47602480D02*
X76840740Y-48029200D01*
X75811357Y-46963447D02*
X75493456Y-46963447D01*
X75927073Y-46963447D02*
X75811357Y-46963447D01*
X75942880Y-46947640D02*
X75927073Y-46963447D01*
X68241600Y-47399760D02*
X68241600Y-48227802D01*
X73842300Y-48471640D02*
X73842300Y-47999200D01*
X68241600Y-48227802D02*
X68548939Y-48535141D01*
X68548939Y-48535141D02*
X73778799Y-48535141D01*
X73778799Y-48535141D02*
X73842300Y-48471640D01*
X73832439Y-48370785D02*
X73832439Y-48009061D01*
X73832439Y-48009061D02*
X73842300Y-47999200D01*
X75491160Y-38269200D02*
X75071580Y-38269200D01*
X75071580Y-38269200D02*
X75071160Y-38269620D01*
X73591448Y-39528671D02*
X73670574Y-39607797D01*
X73842300Y-40348720D02*
X73842300Y-39876280D01*
X72957057Y-39528671D02*
X73591448Y-39528671D01*
X71906821Y-39812779D02*
X72672949Y-39812779D01*
X71843320Y-39876280D02*
X71906821Y-39812779D01*
X71843320Y-40348720D02*
X71843320Y-39876280D01*
X72672949Y-39812779D02*
X72957057Y-39528671D01*
X73670574Y-39607797D02*
X73895363Y-39832586D01*
X73842300Y-39876280D02*
X73885994Y-39832586D01*
X73885994Y-39832586D02*
X73895363Y-39832586D01*
X73911160Y-38499200D02*
X73911160Y-38479620D01*
X73911160Y-38479620D02*
X74151160Y-38239620D01*
X74151160Y-38239620D02*
X75041160Y-38239620D01*
X75041160Y-38239620D02*
X75071160Y-38269620D01*
X75497880Y-38269620D02*
X75071160Y-38269620D01*
X76840740Y-48029200D02*
X77701160Y-48029200D01*
X77701160Y-48029200D02*
X77861160Y-48189200D01*
X76840740Y-48029200D02*
X76871580Y-48029200D01*
X72841540Y-47999200D02*
X72841540Y-47387308D01*
X72841540Y-47387308D02*
X72851160Y-47377688D01*
M02*
