M48
;DRILL file {KiCad 4.0.7+dfsg1-1} date Fri Sep 29 19:36:37 2017
;FORMAT={-:-/ absolute / inch / decimal}
FMAT,2
INCH,TZ
T1C0.008
%
G90
G05
M72
T1
X2.6835Y-1.5693
X2.7036Y-1.6693
X2.7299Y-1.8686
X2.7414Y-1.5488
X2.765Y-1.8599
X2.7954Y-1.5493
X2.8088Y-1.6036
X2.8111Y-1.8257
X2.8682Y-1.8653
X2.8713Y-1.5137
X2.8869Y-1.5726
X2.8898Y-1.6194
X2.8926Y-1.861
X2.9088Y-1.6319
X2.9093Y-1.5682
X2.9099Y-1.5157
X2.913Y-1.6972
X2.9134Y-1.8486
X2.9268Y-1.8275
X2.933Y-1.5637
X2.9607Y-1.7303
X2.9706Y-1.709
X2.9721Y-1.5067
X2.9722Y-1.849
X2.9725Y-1.6319
X2.9735Y-1.5461
X2.9741Y-1.7496
X2.9748Y-1.6712
X2.9752Y-1.7889
X3.004Y-1.8984
X3.0071Y-1.8699
X3.0146Y-1.5791
X3.056Y-1.8149
X3.0603Y-1.5515
X3.0654Y-1.8972
T0
M30
