%TF.GenerationSoftware,KiCad,Pcbnew,4.0.7+dfsg1-1*%
%TF.CreationDate,2017-09-29T19:36:36+02:00*%
%TF.ProjectId,fx2grok-tiny,66783267726F6B2D74696E792E6B6963,1*%
%TF.FileFunction,Soldermask,Top*%
%FSLAX46Y46*%
G04 Gerber Fmt 4.6, Leading zero omitted, Abs format (unit mm)*
G04 Created by KiCad (PCBNEW 4.0.7+dfsg1-1) date Fri Sep 29 19:36:36 2017*
%MOMM*%
%LPD*%
G01*
G04 APERTURE LIST*
%ADD10C,0.150000*%
%ADD11C,0.127000*%
%ADD12R,0.500380X0.701040*%
%ADD13R,0.609600X0.863600*%
%ADD14R,0.701040X0.500380*%
%ADD15R,1.901900X0.861060*%
%ADD16R,1.450340X0.500380*%
%ADD17O,1.701800X2.202180*%
%ADD18R,1.801520X2.001520*%
%ADD19R,2.001520X2.001520*%
G04 APERTURE END LIST*
D10*
D11*
X77641970Y-40579486D02*
X77641970Y-40638914D01*
X77680160Y-40698343D01*
X77718350Y-40728057D01*
X77794731Y-40757771D01*
X77947493Y-40787486D01*
X78138446Y-40787486D01*
X78291208Y-40757771D01*
X78367589Y-40728057D01*
X78405779Y-40698343D01*
X78443970Y-40638914D01*
X78443970Y-40579486D01*
X78405779Y-40520057D01*
X78367589Y-40490343D01*
X78291208Y-40460628D01*
X78138446Y-40430914D01*
X77947493Y-40430914D01*
X77794731Y-40460628D01*
X77718350Y-40490343D01*
X77680160Y-40520057D01*
X77641970Y-40579486D01*
D12*
X75131580Y-46209200D03*
X76030740Y-46209200D03*
X75510740Y-40199200D03*
X74611580Y-40199200D03*
X76390740Y-39089200D03*
X75491580Y-39089200D03*
D13*
X74943660Y-42669200D03*
X73038660Y-42669200D03*
X74943660Y-45209200D03*
X73991160Y-42669200D03*
X73038660Y-45209200D03*
D12*
X73670740Y-38919200D03*
X72771580Y-38919200D03*
X73600740Y-48029200D03*
X72701580Y-48029200D03*
X75321580Y-47299200D03*
X76220740Y-47299200D03*
X75671580Y-48169200D03*
X76570740Y-48169200D03*
D14*
X74531160Y-47868780D03*
X74531160Y-46969620D03*
X77461160Y-48238780D03*
X77461160Y-47339620D03*
X77591160Y-39120040D03*
X77591160Y-40019200D03*
D15*
X77581160Y-46484440D03*
X77581160Y-45209360D03*
X77581160Y-43934280D03*
X77581160Y-42659200D03*
X77581160Y-41384120D03*
D16*
X71500380Y-41969840D03*
X71500380Y-42620080D03*
X71500380Y-43270320D03*
X71500380Y-43920560D03*
X71500380Y-44570800D03*
D17*
X71401320Y-40171520D03*
X71401320Y-46371660D03*
D18*
X68851160Y-47169220D03*
D19*
X68851160Y-44469200D03*
X68851160Y-42071440D03*
D18*
X68851160Y-39371420D03*
D14*
X72801160Y-47158780D03*
X72801160Y-46259620D03*
D12*
X74460740Y-46179200D03*
X73561580Y-46179200D03*
M02*
