%TF.GenerationSoftware,KiCad,Pcbnew,4.0.7+dfsg1-1*%
%TF.CreationDate,2017-09-29T19:36:36+02:00*%
%TF.ProjectId,fx2grok-tiny,66783267726F6B2D74696E792E6B6963,1*%
%TF.FileFunction,Soldermask,Bot*%
%FSLAX46Y46*%
G04 Gerber Fmt 4.6, Leading zero omitted, Abs format (unit mm)*
G04 Created by KiCad (PCBNEW 4.0.7+dfsg1-1) date Fri Sep 29 19:36:36 2017*
%MOMM*%
%LPD*%
G01*
G04 APERTURE LIST*
%ADD10C,0.150000*%
%ADD11C,0.206000*%
%ADD12C,0.127000*%
%ADD13R,0.701040X0.500380*%
%ADD14R,0.500380X0.701040*%
%ADD15R,0.850900X0.751840*%
%ADD16R,5.600700X4.902200*%
%ADD17R,0.792480X0.381000*%
%ADD18R,0.381000X0.792480*%
%ADD19R,1.901900X0.861060*%
G04 APERTURE END LIST*
D10*
D11*
X68991160Y-40989200D02*
X68951921Y-41047867D01*
X68991160Y-41106533D01*
X69030398Y-41047867D01*
X68991160Y-40989200D01*
X68991160Y-41106533D01*
D12*
X78398422Y-40714343D02*
X78398422Y-40424057D01*
X78398422Y-40569200D02*
X77763422Y-40569200D01*
X77854136Y-40520819D01*
X77914612Y-40472438D01*
X77944850Y-40424057D01*
D13*
X75071160Y-38269620D03*
X75071160Y-39168780D03*
D14*
X76890740Y-48209200D03*
X75991580Y-48209200D03*
D13*
X68731160Y-39308780D03*
X68731160Y-38409620D03*
D14*
X77371580Y-47449200D03*
X78270740Y-47449200D03*
D13*
X73181160Y-39138780D03*
X73181160Y-38239620D03*
X69661160Y-38189620D03*
X69661160Y-39088780D03*
X74151160Y-38239620D03*
X74151160Y-39138780D03*
D14*
X76581580Y-39699200D03*
X77480740Y-39699200D03*
X76591580Y-38579200D03*
X77490740Y-38579200D03*
D15*
X72101400Y-39269580D03*
X70803460Y-39269580D03*
X70803460Y-38268820D03*
X72101400Y-38268820D03*
D16*
X72097320Y-44201900D03*
D17*
X75942880Y-40948160D03*
X75942880Y-41448540D03*
X75942880Y-41948920D03*
X75942880Y-42449300D03*
X75942880Y-42947140D03*
X75942880Y-43447520D03*
X75942880Y-43947900D03*
X75942880Y-44448280D03*
X75942880Y-44948660D03*
X75942880Y-45449040D03*
X75942880Y-45949420D03*
X75942880Y-46449800D03*
X75942880Y-46947640D03*
X75942880Y-47448020D03*
D18*
X75343440Y-40348720D03*
X74843060Y-40348720D03*
X74342680Y-40348720D03*
X73842300Y-40348720D03*
X73341920Y-40348720D03*
X72841540Y-40348720D03*
X72341160Y-40348720D03*
X71843320Y-40348720D03*
X71342940Y-40348720D03*
X70842560Y-40348720D03*
X70342180Y-40348720D03*
X69841800Y-40348720D03*
X69341420Y-40348720D03*
X68843580Y-40348720D03*
D17*
X68241600Y-40948160D03*
X68241600Y-41400280D03*
X68241600Y-41898120D03*
X68241600Y-42398500D03*
X68241600Y-42898880D03*
X68241600Y-43399260D03*
X68241600Y-43899640D03*
X68241600Y-44400020D03*
X68241600Y-44900400D03*
X68241600Y-45398240D03*
X68241600Y-45898620D03*
X68241600Y-46399000D03*
X68241600Y-46899380D03*
X68241600Y-47399760D03*
D18*
X68841040Y-47999200D03*
X69341420Y-47999200D03*
X69841800Y-47999200D03*
X70342180Y-47999200D03*
X70842560Y-47999200D03*
X71342940Y-47999200D03*
X71843320Y-47999200D03*
X72341160Y-47999200D03*
X72841540Y-47999200D03*
X73341920Y-47999200D03*
X73842300Y-47999200D03*
X74342680Y-47999200D03*
X74843060Y-47999200D03*
X75343440Y-47999200D03*
D19*
X77581160Y-41384120D03*
X77581160Y-42659200D03*
X77581160Y-43934280D03*
X77581160Y-45209360D03*
X77581160Y-46484440D03*
M02*
