%TF.GenerationSoftware,KiCad,Pcbnew,4.0.7+dfsg1-1*%
%TF.CreationDate,2017-09-29T19:36:36+02:00*%
%TF.ProjectId,fx2grok-tiny,66783267726F6B2D74696E792E6B6963,1*%
%TF.FileFunction,Paste,Bot*%
%FSLAX46Y46*%
G04 Gerber Fmt 4.6, Leading zero omitted, Abs format (unit mm)*
G04 Created by KiCad (PCBNEW 4.0.7+dfsg1-1) date Fri Sep 29 19:36:36 2017*
%MOMM*%
%LPD*%
G01*
G04 APERTURE LIST*
%ADD10C,0.150000*%
%ADD11R,0.599440X0.398780*%
%ADD12R,0.398780X0.599440*%
%ADD13R,0.749300X0.650240*%
%ADD14R,5.499100X4.800600*%
%ADD15R,0.690880X0.279400*%
%ADD16R,0.279400X0.690880*%
%ADD17R,1.800300X0.759460*%
G04 APERTURE END LIST*
D10*
D11*
X75071160Y-38269620D03*
X75071160Y-39168780D03*
D12*
X76890740Y-48209200D03*
X75991580Y-48209200D03*
D11*
X68731160Y-39308780D03*
X68731160Y-38409620D03*
D12*
X77371580Y-47449200D03*
X78270740Y-47449200D03*
D11*
X73181160Y-39138780D03*
X73181160Y-38239620D03*
X69661160Y-38189620D03*
X69661160Y-39088780D03*
X74151160Y-38239620D03*
X74151160Y-39138780D03*
D12*
X76581580Y-39699200D03*
X77480740Y-39699200D03*
X76591580Y-38579200D03*
X77490740Y-38579200D03*
D13*
X72101400Y-39269580D03*
X70803460Y-39269580D03*
X70803460Y-38268820D03*
X72101400Y-38268820D03*
D14*
X72097320Y-44201900D03*
D15*
X75942880Y-40948160D03*
X75942880Y-41448540D03*
X75942880Y-41948920D03*
X75942880Y-42449300D03*
X75942880Y-42947140D03*
X75942880Y-43447520D03*
X75942880Y-43947900D03*
X75942880Y-44448280D03*
X75942880Y-44948660D03*
X75942880Y-45449040D03*
X75942880Y-45949420D03*
X75942880Y-46449800D03*
X75942880Y-46947640D03*
X75942880Y-47448020D03*
D16*
X75343440Y-40348720D03*
X74843060Y-40348720D03*
X74342680Y-40348720D03*
X73842300Y-40348720D03*
X73341920Y-40348720D03*
X72841540Y-40348720D03*
X72341160Y-40348720D03*
X71843320Y-40348720D03*
X71342940Y-40348720D03*
X70842560Y-40348720D03*
X70342180Y-40348720D03*
X69841800Y-40348720D03*
X69341420Y-40348720D03*
X68843580Y-40348720D03*
D15*
X68241600Y-40948160D03*
X68241600Y-41400280D03*
X68241600Y-41898120D03*
X68241600Y-42398500D03*
X68241600Y-42898880D03*
X68241600Y-43399260D03*
X68241600Y-43899640D03*
X68241600Y-44400020D03*
X68241600Y-44900400D03*
X68241600Y-45398240D03*
X68241600Y-45898620D03*
X68241600Y-46399000D03*
X68241600Y-46899380D03*
X68241600Y-47399760D03*
D16*
X68841040Y-47999200D03*
X69341420Y-47999200D03*
X69841800Y-47999200D03*
X70342180Y-47999200D03*
X70842560Y-47999200D03*
X71342940Y-47999200D03*
X71843320Y-47999200D03*
X72341160Y-47999200D03*
X72841540Y-47999200D03*
X73341920Y-47999200D03*
X73842300Y-47999200D03*
X74342680Y-47999200D03*
X74843060Y-47999200D03*
X75343440Y-47999200D03*
D17*
X77581160Y-41384120D03*
X77581160Y-42659200D03*
X77581160Y-43934280D03*
X77581160Y-45209360D03*
X77581160Y-46484440D03*
M02*
